<mxfile host="65bd71144e">
    <diagram id="xHjtI5lYbumG9dZo4QJ-" name="PÃ¡gina-1">
        <mxGraphModel dx="1249" dy="711" grid="1" gridSize="10" guides="1" tooltips="1" connect="1" arrows="1" fold="1" page="1" pageScale="1" pageWidth="1169" pageHeight="827" math="0" shadow="0">
            <root>
                <mxCell id="0"/>
                <mxCell id="1" parent="0"/>
                <mxCell id="2" value="User" style="shape=table;startSize=20;container=1;collapsible=0;childLayout=tableLayout;fontStyle=1;align=center;pointerEvents=1;strokeColor=#007FFF;strokeWidth=1;perimeterSpacing=0;swimlaneFillColor=none;fillColor=#007FFF;rounded=1;rowLines=0;columnLines=0;fontColor=#ffffff;sketch=0;" parent="1" vertex="1">
                    <mxGeometry x="80" y="40" width="320" height="132" as="geometry"/>
                </mxCell>
                <mxCell id="3" value="" style="shape=partialRectangle;html=1;whiteSpace=wrap;collapsible=0;dropTarget=0;pointerEvents=0;fillColor=none;top=0;left=0;bottom=0;right=0;points=[[0,0.5],[1,0.5]];portConstraint=eastwest;rounded=1;" parent="2" vertex="1">
                    <mxGeometry y="20" width="320" height="22" as="geometry"/>
                </mxCell>
                <mxCell id="4" value="id" style="shape=partialRectangle;html=1;whiteSpace=wrap;connectable=0;fillColor=none;top=0;left=0;bottom=0;right=0;overflow=hidden;pointerEvents=1;rounded=1;" parent="3" vertex="1">
                    <mxGeometry width="107" height="22" as="geometry">
                        <mxRectangle width="107" height="22" as="alternateBounds"/>
                    </mxGeometry>
                </mxCell>
                <mxCell id="5" value="INT" style="shape=partialRectangle;html=1;whiteSpace=wrap;connectable=0;fillColor=none;top=0;left=0;bottom=0;right=0;overflow=hidden;pointerEvents=1;rounded=1;" parent="3" vertex="1">
                    <mxGeometry x="107" width="106" height="22" as="geometry">
                        <mxRectangle width="106" height="22" as="alternateBounds"/>
                    </mxGeometry>
                </mxCell>
                <mxCell id="6" value="NOT NULL" style="shape=partialRectangle;html=1;whiteSpace=wrap;connectable=0;fillColor=none;top=0;left=0;bottom=0;right=0;overflow=hidden;pointerEvents=1;rounded=1;" parent="3" vertex="1">
                    <mxGeometry x="213" width="107" height="22" as="geometry">
                        <mxRectangle width="107" height="22" as="alternateBounds"/>
                    </mxGeometry>
                </mxCell>
                <mxCell id="11" value="" style="shape=partialRectangle;html=1;whiteSpace=wrap;collapsible=0;dropTarget=0;pointerEvents=0;fillColor=none;top=0;left=0;bottom=0;right=0;points=[[0,0.5],[1,0.5]];portConstraint=eastwest;rounded=1;" parent="2" vertex="1">
                    <mxGeometry y="42" width="320" height="18" as="geometry"/>
                </mxCell>
                <mxCell id="12" value="firstName" style="shape=partialRectangle;html=1;whiteSpace=wrap;connectable=0;fillColor=none;top=0;left=0;bottom=0;right=0;overflow=hidden;pointerEvents=1;rounded=1;" parent="11" vertex="1">
                    <mxGeometry width="107" height="18" as="geometry">
                        <mxRectangle width="107" height="18" as="alternateBounds"/>
                    </mxGeometry>
                </mxCell>
                <mxCell id="13" value="VARCHAR (255)" style="shape=partialRectangle;html=1;whiteSpace=wrap;connectable=0;fillColor=none;top=0;left=0;bottom=0;right=0;overflow=hidden;pointerEvents=1;rounded=1;" parent="11" vertex="1">
                    <mxGeometry x="107" width="106" height="18" as="geometry">
                        <mxRectangle width="106" height="18" as="alternateBounds"/>
                    </mxGeometry>
                </mxCell>
                <mxCell id="14" value="NOT NULL" style="shape=partialRectangle;html=1;whiteSpace=wrap;connectable=0;fillColor=none;top=0;left=0;bottom=0;right=0;overflow=hidden;pointerEvents=1;rounded=1;" parent="11" vertex="1">
                    <mxGeometry x="213" width="107" height="18" as="geometry">
                        <mxRectangle width="107" height="18" as="alternateBounds"/>
                    </mxGeometry>
                </mxCell>
                <mxCell id="62" style="shape=partialRectangle;html=1;whiteSpace=wrap;collapsible=0;dropTarget=0;pointerEvents=0;fillColor=none;top=0;left=0;bottom=0;right=0;points=[[0,0.5],[1,0.5]];portConstraint=eastwest;rounded=1;" vertex="1" parent="2">
                    <mxGeometry y="60" width="320" height="18" as="geometry"/>
                </mxCell>
                <mxCell id="63" value="lastName" style="shape=partialRectangle;html=1;whiteSpace=wrap;connectable=0;fillColor=none;top=0;left=0;bottom=0;right=0;overflow=hidden;pointerEvents=1;rounded=1;" vertex="1" parent="62">
                    <mxGeometry width="107" height="18" as="geometry">
                        <mxRectangle width="107" height="18" as="alternateBounds"/>
                    </mxGeometry>
                </mxCell>
                <mxCell id="64" value="VARCHAR (255)" style="shape=partialRectangle;html=1;whiteSpace=wrap;connectable=0;fillColor=none;top=0;left=0;bottom=0;right=0;overflow=hidden;pointerEvents=1;rounded=1;" vertex="1" parent="62">
                    <mxGeometry x="107" width="106" height="18" as="geometry">
                        <mxRectangle width="106" height="18" as="alternateBounds"/>
                    </mxGeometry>
                </mxCell>
                <mxCell id="65" value="NOT NULL" style="shape=partialRectangle;html=1;whiteSpace=wrap;connectable=0;fillColor=none;top=0;left=0;bottom=0;right=0;overflow=hidden;pointerEvents=1;rounded=1;" vertex="1" parent="62">
                    <mxGeometry x="213" width="107" height="18" as="geometry">
                        <mxRectangle width="107" height="18" as="alternateBounds"/>
                    </mxGeometry>
                </mxCell>
                <mxCell id="54" style="shape=partialRectangle;html=1;whiteSpace=wrap;collapsible=0;dropTarget=0;pointerEvents=0;fillColor=none;top=0;left=0;bottom=0;right=0;points=[[0,0.5],[1,0.5]];portConstraint=eastwest;rounded=1;" vertex="1" parent="2">
                    <mxGeometry y="78" width="320" height="18" as="geometry"/>
                </mxCell>
                <mxCell id="55" value="password" style="shape=partialRectangle;html=1;whiteSpace=wrap;connectable=0;fillColor=none;top=0;left=0;bottom=0;right=0;overflow=hidden;pointerEvents=1;rounded=1;" vertex="1" parent="54">
                    <mxGeometry width="107" height="18" as="geometry">
                        <mxRectangle width="107" height="18" as="alternateBounds"/>
                    </mxGeometry>
                </mxCell>
                <mxCell id="56" value="VARCHAR (255)" style="shape=partialRectangle;html=1;whiteSpace=wrap;connectable=0;fillColor=none;top=0;left=0;bottom=0;right=0;overflow=hidden;pointerEvents=1;rounded=1;" vertex="1" parent="54">
                    <mxGeometry x="107" width="106" height="18" as="geometry">
                        <mxRectangle width="106" height="18" as="alternateBounds"/>
                    </mxGeometry>
                </mxCell>
                <mxCell id="57" value="NOT NULL" style="shape=partialRectangle;html=1;whiteSpace=wrap;connectable=0;fillColor=none;top=0;left=0;bottom=0;right=0;overflow=hidden;pointerEvents=1;rounded=1;" vertex="1" parent="54">
                    <mxGeometry x="213" width="107" height="18" as="geometry">
                        <mxRectangle width="107" height="18" as="alternateBounds"/>
                    </mxGeometry>
                </mxCell>
                <mxCell id="99" style="shape=partialRectangle;html=1;whiteSpace=wrap;collapsible=0;dropTarget=0;pointerEvents=0;fillColor=none;top=0;left=0;bottom=0;right=0;points=[[0,0.5],[1,0.5]];portConstraint=eastwest;rounded=1;" vertex="1" parent="2">
                    <mxGeometry y="96" width="320" height="18" as="geometry"/>
                </mxCell>
                <mxCell id="100" value="createdAt" style="shape=partialRectangle;html=1;whiteSpace=wrap;connectable=0;fillColor=none;top=0;left=0;bottom=0;right=0;overflow=hidden;pointerEvents=1;rounded=1;" vertex="1" parent="99">
                    <mxGeometry width="107" height="18" as="geometry">
                        <mxRectangle width="107" height="18" as="alternateBounds"/>
                    </mxGeometry>
                </mxCell>
                <mxCell id="101" value="DATE" style="shape=partialRectangle;html=1;whiteSpace=wrap;connectable=0;fillColor=none;top=0;left=0;bottom=0;right=0;overflow=hidden;pointerEvents=1;rounded=1;" vertex="1" parent="99">
                    <mxGeometry x="107" width="106" height="18" as="geometry">
                        <mxRectangle width="106" height="18" as="alternateBounds"/>
                    </mxGeometry>
                </mxCell>
                <mxCell id="102" value="NOT NULL" style="shape=partialRectangle;html=1;whiteSpace=wrap;connectable=0;fillColor=none;top=0;left=0;bottom=0;right=0;overflow=hidden;pointerEvents=1;rounded=1;" vertex="1" parent="99">
                    <mxGeometry x="213" width="107" height="18" as="geometry">
                        <mxRectangle width="107" height="18" as="alternateBounds"/>
                    </mxGeometry>
                </mxCell>
                <mxCell id="103" style="shape=partialRectangle;html=1;whiteSpace=wrap;collapsible=0;dropTarget=0;pointerEvents=0;fillColor=none;top=0;left=0;bottom=0;right=0;points=[[0,0.5],[1,0.5]];portConstraint=eastwest;rounded=1;" vertex="1" parent="2">
                    <mxGeometry y="114" width="320" height="18" as="geometry"/>
                </mxCell>
                <mxCell id="104" value="deletedAt" style="shape=partialRectangle;html=1;whiteSpace=wrap;connectable=0;fillColor=none;top=0;left=0;bottom=0;right=0;overflow=hidden;pointerEvents=1;rounded=1;" vertex="1" parent="103">
                    <mxGeometry width="107" height="18" as="geometry">
                        <mxRectangle width="107" height="18" as="alternateBounds"/>
                    </mxGeometry>
                </mxCell>
                <mxCell id="105" value="DATE" style="shape=partialRectangle;html=1;whiteSpace=wrap;connectable=0;fillColor=none;top=0;left=0;bottom=0;right=0;overflow=hidden;pointerEvents=1;rounded=1;" vertex="1" parent="103">
                    <mxGeometry x="107" width="106" height="18" as="geometry">
                        <mxRectangle width="106" height="18" as="alternateBounds"/>
                    </mxGeometry>
                </mxCell>
                <mxCell id="106" value="NULL" style="shape=partialRectangle;html=1;whiteSpace=wrap;connectable=0;fillColor=none;top=0;left=0;bottom=0;right=0;overflow=hidden;pointerEvents=1;rounded=1;" vertex="1" parent="103">
                    <mxGeometry x="213" width="107" height="18" as="geometry">
                        <mxRectangle width="107" height="18" as="alternateBounds"/>
                    </mxGeometry>
                </mxCell>
                <mxCell id="66" value="Photo" style="shape=table;startSize=20;container=1;collapsible=0;childLayout=tableLayout;fontStyle=1;align=center;pointerEvents=1;strokeColor=#FF5D3D;strokeWidth=1;perimeterSpacing=0;swimlaneFillColor=none;fillColor=#FF5D3D;rounded=1;rowLines=0;columnLines=0;fontColor=#ffffff;" vertex="1" parent="1">
                    <mxGeometry x="760" y="40" width="320" height="196" as="geometry"/>
                </mxCell>
                <mxCell id="67" value="" style="shape=partialRectangle;html=1;whiteSpace=wrap;collapsible=0;dropTarget=0;pointerEvents=0;fillColor=none;top=0;left=0;bottom=0;right=0;points=[[0,0.5],[1,0.5]];portConstraint=eastwest;rounded=1;" vertex="1" parent="66">
                    <mxGeometry y="20" width="320" height="22" as="geometry"/>
                </mxCell>
                <mxCell id="68" value="id" style="shape=partialRectangle;html=1;whiteSpace=wrap;connectable=0;fillColor=none;top=0;left=0;bottom=0;right=0;overflow=hidden;pointerEvents=1;rounded=1;" vertex="1" parent="67">
                    <mxGeometry width="107" height="22" as="geometry">
                        <mxRectangle width="107" height="22" as="alternateBounds"/>
                    </mxGeometry>
                </mxCell>
                <mxCell id="69" value="INT" style="shape=partialRectangle;html=1;whiteSpace=wrap;connectable=0;fillColor=none;top=0;left=0;bottom=0;right=0;overflow=hidden;pointerEvents=1;rounded=1;" vertex="1" parent="67">
                    <mxGeometry x="107" width="106" height="22" as="geometry">
                        <mxRectangle width="106" height="22" as="alternateBounds"/>
                    </mxGeometry>
                </mxCell>
                <mxCell id="70" value="NOT NULL" style="shape=partialRectangle;html=1;whiteSpace=wrap;connectable=0;fillColor=none;top=0;left=0;bottom=0;right=0;overflow=hidden;pointerEvents=1;rounded=1;" vertex="1" parent="67">
                    <mxGeometry x="213" width="107" height="22" as="geometry">
                        <mxRectangle width="107" height="22" as="alternateBounds"/>
                    </mxGeometry>
                </mxCell>
                <mxCell id="71" style="shape=partialRectangle;html=1;whiteSpace=wrap;collapsible=0;dropTarget=0;pointerEvents=0;fillColor=none;top=0;left=0;bottom=0;right=0;points=[[0,0.5],[1,0.5]];portConstraint=eastwest;rounded=1;" vertex="1" parent="66">
                    <mxGeometry y="42" width="320" height="22" as="geometry"/>
                </mxCell>
                <mxCell id="72" value="url" style="shape=partialRectangle;html=1;whiteSpace=wrap;connectable=0;fillColor=none;top=0;left=0;bottom=0;right=0;overflow=hidden;pointerEvents=1;rounded=1;" vertex="1" parent="71">
                    <mxGeometry width="107" height="22" as="geometry">
                        <mxRectangle width="107" height="22" as="alternateBounds"/>
                    </mxGeometry>
                </mxCell>
                <mxCell id="73" value="VARCHAR (255)" style="shape=partialRectangle;html=1;whiteSpace=wrap;connectable=0;fillColor=none;top=0;left=0;bottom=0;right=0;overflow=hidden;pointerEvents=1;rounded=1;" vertex="1" parent="71">
                    <mxGeometry x="107" width="106" height="22" as="geometry">
                        <mxRectangle width="106" height="22" as="alternateBounds"/>
                    </mxGeometry>
                </mxCell>
                <mxCell id="74" value="NOT NULL" style="shape=partialRectangle;html=1;whiteSpace=wrap;connectable=0;fillColor=none;top=0;left=0;bottom=0;right=0;overflow=hidden;pointerEvents=1;rounded=1;" vertex="1" parent="71">
                    <mxGeometry x="213" width="107" height="22" as="geometry">
                        <mxRectangle width="107" height="22" as="alternateBounds"/>
                    </mxGeometry>
                </mxCell>
                <mxCell id="75" style="shape=partialRectangle;html=1;whiteSpace=wrap;collapsible=0;dropTarget=0;pointerEvents=0;fillColor=none;top=0;left=0;bottom=0;right=0;points=[[0,0.5],[1,0.5]];portConstraint=eastwest;rounded=1;" vertex="1" parent="66">
                    <mxGeometry y="64" width="320" height="22" as="geometry"/>
                </mxCell>
                <mxCell id="76" value="size" style="shape=partialRectangle;html=1;whiteSpace=wrap;connectable=0;fillColor=none;top=0;left=0;bottom=0;right=0;overflow=hidden;pointerEvents=1;rounded=1;" vertex="1" parent="75">
                    <mxGeometry width="107" height="22" as="geometry">
                        <mxRectangle width="107" height="22" as="alternateBounds"/>
                    </mxGeometry>
                </mxCell>
                <mxCell id="77" value="FLOAT" style="shape=partialRectangle;html=1;whiteSpace=wrap;connectable=0;fillColor=none;top=0;left=0;bottom=0;right=0;overflow=hidden;pointerEvents=1;rounded=1;" vertex="1" parent="75">
                    <mxGeometry x="107" width="106" height="22" as="geometry">
                        <mxRectangle width="106" height="22" as="alternateBounds"/>
                    </mxGeometry>
                </mxCell>
                <mxCell id="78" value="NOT NULL" style="shape=partialRectangle;html=1;whiteSpace=wrap;connectable=0;fillColor=none;top=0;left=0;bottom=0;right=0;overflow=hidden;pointerEvents=1;rounded=1;" vertex="1" parent="75">
                    <mxGeometry x="213" width="107" height="22" as="geometry">
                        <mxRectangle width="107" height="22" as="alternateBounds"/>
                    </mxGeometry>
                </mxCell>
                <mxCell id="79" style="shape=partialRectangle;html=1;whiteSpace=wrap;collapsible=0;dropTarget=0;pointerEvents=0;fillColor=none;top=0;left=0;bottom=0;right=0;points=[[0,0.5],[1,0.5]];portConstraint=eastwest;rounded=1;" vertex="1" parent="66">
                    <mxGeometry y="86" width="320" height="22" as="geometry"/>
                </mxCell>
                <mxCell id="80" value="width" style="shape=partialRectangle;html=1;whiteSpace=wrap;connectable=0;fillColor=none;top=0;left=0;bottom=0;right=0;overflow=hidden;pointerEvents=1;rounded=1;" vertex="1" parent="79">
                    <mxGeometry width="107" height="22" as="geometry">
                        <mxRectangle width="107" height="22" as="alternateBounds"/>
                    </mxGeometry>
                </mxCell>
                <mxCell id="81" value="FLOAT" style="shape=partialRectangle;html=1;whiteSpace=wrap;connectable=0;fillColor=none;top=0;left=0;bottom=0;right=0;overflow=hidden;pointerEvents=1;rounded=1;" vertex="1" parent="79">
                    <mxGeometry x="107" width="106" height="22" as="geometry">
                        <mxRectangle width="106" height="22" as="alternateBounds"/>
                    </mxGeometry>
                </mxCell>
                <mxCell id="82" value="NOT NULL" style="shape=partialRectangle;html=1;whiteSpace=wrap;connectable=0;fillColor=none;top=0;left=0;bottom=0;right=0;overflow=hidden;pointerEvents=1;rounded=1;" vertex="1" parent="79">
                    <mxGeometry x="213" width="107" height="22" as="geometry">
                        <mxRectangle width="107" height="22" as="alternateBounds"/>
                    </mxGeometry>
                </mxCell>
                <mxCell id="83" style="shape=partialRectangle;html=1;whiteSpace=wrap;collapsible=0;dropTarget=0;pointerEvents=0;fillColor=none;top=0;left=0;bottom=0;right=0;points=[[0,0.5],[1,0.5]];portConstraint=eastwest;rounded=1;" vertex="1" parent="66">
                    <mxGeometry y="108" width="320" height="22" as="geometry"/>
                </mxCell>
                <mxCell id="84" value="height" style="shape=partialRectangle;html=1;whiteSpace=wrap;connectable=0;fillColor=none;top=0;left=0;bottom=0;right=0;overflow=hidden;pointerEvents=1;rounded=1;" vertex="1" parent="83">
                    <mxGeometry width="107" height="22" as="geometry">
                        <mxRectangle width="107" height="22" as="alternateBounds"/>
                    </mxGeometry>
                </mxCell>
                <mxCell id="85" value="FLOAT" style="shape=partialRectangle;html=1;whiteSpace=wrap;connectable=0;fillColor=none;top=0;left=0;bottom=0;right=0;overflow=hidden;pointerEvents=1;rounded=1;" vertex="1" parent="83">
                    <mxGeometry x="107" width="106" height="22" as="geometry">
                        <mxRectangle width="106" height="22" as="alternateBounds"/>
                    </mxGeometry>
                </mxCell>
                <mxCell id="86" value="NOT NULL" style="shape=partialRectangle;html=1;whiteSpace=wrap;connectable=0;fillColor=none;top=0;left=0;bottom=0;right=0;overflow=hidden;pointerEvents=1;rounded=1;" vertex="1" parent="83">
                    <mxGeometry x="213" width="107" height="22" as="geometry">
                        <mxRectangle width="107" height="22" as="alternateBounds"/>
                    </mxGeometry>
                </mxCell>
                <mxCell id="87" style="shape=partialRectangle;html=1;whiteSpace=wrap;collapsible=0;dropTarget=0;pointerEvents=0;fillColor=none;top=0;left=0;bottom=0;right=0;points=[[0,0.5],[1,0.5]];portConstraint=eastwest;rounded=1;" vertex="1" parent="66">
                    <mxGeometry y="130" width="320" height="22" as="geometry"/>
                </mxCell>
                <mxCell id="88" value="mimeType" style="shape=partialRectangle;html=1;whiteSpace=wrap;connectable=0;fillColor=none;top=0;left=0;bottom=0;right=0;overflow=hidden;pointerEvents=1;rounded=1;" vertex="1" parent="87">
                    <mxGeometry width="107" height="22" as="geometry">
                        <mxRectangle width="107" height="22" as="alternateBounds"/>
                    </mxGeometry>
                </mxCell>
                <mxCell id="89" value="VARCHAR (255)" style="shape=partialRectangle;html=1;whiteSpace=wrap;connectable=0;fillColor=none;top=0;left=0;bottom=0;right=0;overflow=hidden;pointerEvents=1;rounded=1;" vertex="1" parent="87">
                    <mxGeometry x="107" width="106" height="22" as="geometry">
                        <mxRectangle width="106" height="22" as="alternateBounds"/>
                    </mxGeometry>
                </mxCell>
                <mxCell id="90" value="NOT NULL" style="shape=partialRectangle;html=1;whiteSpace=wrap;connectable=0;fillColor=none;top=0;left=0;bottom=0;right=0;overflow=hidden;pointerEvents=1;rounded=1;strokeColor=#FF5D3D;" vertex="1" parent="87">
                    <mxGeometry x="213" width="107" height="22" as="geometry">
                        <mxRectangle width="107" height="22" as="alternateBounds"/>
                    </mxGeometry>
                </mxCell>
                <mxCell id="91" style="shape=partialRectangle;html=1;whiteSpace=wrap;collapsible=0;dropTarget=0;pointerEvents=0;fillColor=none;top=0;left=0;bottom=0;right=0;points=[[0,0.5],[1,0.5]];portConstraint=eastwest;rounded=1;" vertex="1" parent="66">
                    <mxGeometry y="152" width="320" height="22" as="geometry"/>
                </mxCell>
                <mxCell id="92" value="aspectRatio" style="shape=partialRectangle;html=1;whiteSpace=wrap;connectable=0;fillColor=none;top=0;left=0;bottom=0;right=0;overflow=hidden;pointerEvents=1;rounded=1;" vertex="1" parent="91">
                    <mxGeometry width="107" height="22" as="geometry">
                        <mxRectangle width="107" height="22" as="alternateBounds"/>
                    </mxGeometry>
                </mxCell>
                <mxCell id="93" value="VARCHAR (255)" style="shape=partialRectangle;html=1;whiteSpace=wrap;connectable=0;fillColor=none;top=0;left=0;bottom=0;right=0;overflow=hidden;pointerEvents=1;rounded=1;" vertex="1" parent="91">
                    <mxGeometry x="107" width="106" height="22" as="geometry">
                        <mxRectangle width="106" height="22" as="alternateBounds"/>
                    </mxGeometry>
                </mxCell>
                <mxCell id="94" value="NOT NULL" style="shape=partialRectangle;html=1;whiteSpace=wrap;connectable=0;fillColor=none;top=0;left=0;bottom=0;right=0;overflow=hidden;pointerEvents=1;rounded=1;" vertex="1" parent="91">
                    <mxGeometry x="213" width="107" height="22" as="geometry">
                        <mxRectangle width="107" height="22" as="alternateBounds"/>
                    </mxGeometry>
                </mxCell>
                <mxCell id="95" style="shape=partialRectangle;html=1;whiteSpace=wrap;collapsible=0;dropTarget=0;pointerEvents=0;fillColor=none;top=0;left=0;bottom=0;right=0;points=[[0,0.5],[1,0.5]];portConstraint=eastwest;rounded=1;" vertex="1" parent="66">
                    <mxGeometry y="174" width="320" height="22" as="geometry"/>
                </mxCell>
                <mxCell id="96" value="name" style="shape=partialRectangle;html=1;whiteSpace=wrap;connectable=0;fillColor=none;top=0;left=0;bottom=0;right=0;overflow=hidden;pointerEvents=1;rounded=1;" vertex="1" parent="95">
                    <mxGeometry width="107" height="22" as="geometry">
                        <mxRectangle width="107" height="22" as="alternateBounds"/>
                    </mxGeometry>
                </mxCell>
                <mxCell id="97" value="VARCHAR (255)" style="shape=partialRectangle;html=1;whiteSpace=wrap;connectable=0;fillColor=none;top=0;left=0;bottom=0;right=0;overflow=hidden;pointerEvents=1;rounded=1;" vertex="1" parent="95">
                    <mxGeometry x="107" width="106" height="22" as="geometry">
                        <mxRectangle width="106" height="22" as="alternateBounds"/>
                    </mxGeometry>
                </mxCell>
                <mxCell id="98" value="NOT NULL" style="shape=partialRectangle;html=1;whiteSpace=wrap;connectable=0;fillColor=none;top=0;left=0;bottom=0;right=0;overflow=hidden;pointerEvents=1;rounded=1;" vertex="1" parent="95">
                    <mxGeometry x="213" width="107" height="22" as="geometry">
                        <mxRectangle width="107" height="22" as="alternateBounds"/>
                    </mxGeometry>
                </mxCell>
                <mxCell id="107" value="Note" style="shape=table;startSize=20;container=1;collapsible=0;childLayout=tableLayout;fontStyle=1;align=center;pointerEvents=1;strokeColor=#7657F2;strokeWidth=1;perimeterSpacing=0;swimlaneFillColor=none;gradientColor=none;fillColor=#7657F2;rounded=1;rowLines=0;columnLines=0;" vertex="1" parent="1">
                    <mxGeometry x="80" y="240" width="320" height="196" as="geometry"/>
                </mxCell>
                <mxCell id="108" value="" style="shape=partialRectangle;html=1;whiteSpace=wrap;collapsible=0;dropTarget=0;pointerEvents=0;fillColor=none;top=0;left=0;bottom=0;right=0;points=[[0,0.5],[1,0.5]];portConstraint=eastwest;rounded=1;" vertex="1" parent="107">
                    <mxGeometry y="20" width="320" height="22" as="geometry"/>
                </mxCell>
                <mxCell id="109" value="id" style="shape=partialRectangle;html=1;whiteSpace=wrap;connectable=0;fillColor=none;top=0;left=0;bottom=0;right=0;overflow=hidden;pointerEvents=1;rounded=1;" vertex="1" parent="108">
                    <mxGeometry width="107" height="22" as="geometry">
                        <mxRectangle width="107" height="22" as="alternateBounds"/>
                    </mxGeometry>
                </mxCell>
                <mxCell id="110" value="INT" style="shape=partialRectangle;html=1;whiteSpace=wrap;connectable=0;fillColor=none;top=0;left=0;bottom=0;right=0;overflow=hidden;pointerEvents=1;rounded=1;" vertex="1" parent="108">
                    <mxGeometry x="107" width="106" height="22" as="geometry">
                        <mxRectangle width="106" height="22" as="alternateBounds"/>
                    </mxGeometry>
                </mxCell>
                <mxCell id="111" value="NOT NULL" style="shape=partialRectangle;html=1;whiteSpace=wrap;connectable=0;fillColor=none;top=0;left=0;bottom=0;right=0;overflow=hidden;pointerEvents=1;rounded=1;" vertex="1" parent="108">
                    <mxGeometry x="213" width="107" height="22" as="geometry">
                        <mxRectangle width="107" height="22" as="alternateBounds"/>
                    </mxGeometry>
                </mxCell>
                <mxCell id="112" style="shape=partialRectangle;html=1;whiteSpace=wrap;collapsible=0;dropTarget=0;pointerEvents=0;fillColor=none;top=0;left=0;bottom=0;right=0;points=[[0,0.5],[1,0.5]];portConstraint=eastwest;rounded=1;" vertex="1" parent="107">
                    <mxGeometry y="42" width="320" height="22" as="geometry"/>
                </mxCell>
                <mxCell id="113" value="title" style="shape=partialRectangle;html=1;whiteSpace=wrap;connectable=0;fillColor=none;top=0;left=0;bottom=0;right=0;overflow=hidden;pointerEvents=1;rounded=1;" vertex="1" parent="112">
                    <mxGeometry width="107" height="22" as="geometry">
                        <mxRectangle width="107" height="22" as="alternateBounds"/>
                    </mxGeometry>
                </mxCell>
                <mxCell id="114" value="VARCHAR (255)" style="shape=partialRectangle;html=1;whiteSpace=wrap;connectable=0;fillColor=none;top=0;left=0;bottom=0;right=0;overflow=hidden;pointerEvents=1;rounded=1;" vertex="1" parent="112">
                    <mxGeometry x="107" width="106" height="22" as="geometry">
                        <mxRectangle width="106" height="22" as="alternateBounds"/>
                    </mxGeometry>
                </mxCell>
                <mxCell id="115" value="NOT NULL" style="shape=partialRectangle;html=1;whiteSpace=wrap;connectable=0;fillColor=none;top=0;left=0;bottom=0;right=0;overflow=hidden;pointerEvents=1;rounded=1;" vertex="1" parent="112">
                    <mxGeometry x="213" width="107" height="22" as="geometry">
                        <mxRectangle width="107" height="22" as="alternateBounds"/>
                    </mxGeometry>
                </mxCell>
                <mxCell id="128" style="shape=partialRectangle;html=1;whiteSpace=wrap;collapsible=0;dropTarget=0;pointerEvents=0;fillColor=none;top=0;left=0;bottom=0;right=0;points=[[0,0.5],[1,0.5]];portConstraint=eastwest;rounded=1;" vertex="1" parent="107">
                    <mxGeometry y="64" width="320" height="22" as="geometry"/>
                </mxCell>
                <mxCell id="129" value="content" style="shape=partialRectangle;html=1;whiteSpace=wrap;connectable=0;fillColor=none;top=0;left=0;bottom=0;right=0;overflow=hidden;pointerEvents=1;rounded=1;" vertex="1" parent="128">
                    <mxGeometry width="107" height="22" as="geometry">
                        <mxRectangle width="107" height="22" as="alternateBounds"/>
                    </mxGeometry>
                </mxCell>
                <mxCell id="130" value="TEXT" style="shape=partialRectangle;html=1;whiteSpace=wrap;connectable=0;fillColor=none;top=0;left=0;bottom=0;right=0;overflow=hidden;pointerEvents=1;rounded=1;" vertex="1" parent="128">
                    <mxGeometry x="107" width="106" height="22" as="geometry">
                        <mxRectangle width="106" height="22" as="alternateBounds"/>
                    </mxGeometry>
                </mxCell>
                <mxCell id="131" value="NULL" style="shape=partialRectangle;html=1;whiteSpace=wrap;connectable=0;fillColor=none;top=0;left=0;bottom=0;right=0;overflow=hidden;pointerEvents=1;rounded=1;" vertex="1" parent="128">
                    <mxGeometry x="213" width="107" height="22" as="geometry">
                        <mxRectangle width="107" height="22" as="alternateBounds"/>
                    </mxGeometry>
                </mxCell>
                <mxCell id="161" style="shape=partialRectangle;html=1;whiteSpace=wrap;collapsible=0;dropTarget=0;pointerEvents=0;fillColor=none;top=0;left=0;bottom=0;right=0;points=[[0,0.5],[1,0.5]];portConstraint=eastwest;rounded=1;" vertex="1" parent="107">
                    <mxGeometry y="86" width="320" height="22" as="geometry"/>
                </mxCell>
                <mxCell id="162" value="background" style="shape=partialRectangle;html=1;whiteSpace=wrap;connectable=0;fillColor=none;top=0;left=0;bottom=0;right=0;overflow=hidden;pointerEvents=1;rounded=1;" vertex="1" parent="161">
                    <mxGeometry width="107" height="22" as="geometry">
                        <mxRectangle width="107" height="22" as="alternateBounds"/>
                    </mxGeometry>
                </mxCell>
                <mxCell id="163" value="VARCHAR (255)" style="shape=partialRectangle;html=1;whiteSpace=wrap;connectable=0;fillColor=none;top=0;left=0;bottom=0;right=0;overflow=hidden;pointerEvents=1;rounded=1;" vertex="1" parent="161">
                    <mxGeometry x="107" width="106" height="22" as="geometry">
                        <mxRectangle width="106" height="22" as="alternateBounds"/>
                    </mxGeometry>
                </mxCell>
                <mxCell id="164" value="NOT NULL" style="shape=partialRectangle;html=1;whiteSpace=wrap;connectable=0;fillColor=none;top=0;left=0;bottom=0;right=0;overflow=hidden;pointerEvents=1;rounded=1;" vertex="1" parent="161">
                    <mxGeometry x="213" width="107" height="22" as="geometry">
                        <mxRectangle width="107" height="22" as="alternateBounds"/>
                    </mxGeometry>
                </mxCell>
                <mxCell id="190" style="shape=partialRectangle;html=1;whiteSpace=wrap;collapsible=0;dropTarget=0;pointerEvents=0;fillColor=none;top=0;left=0;bottom=0;right=0;points=[[0,0.5],[1,0.5]];portConstraint=eastwest;rounded=1;" vertex="1" parent="107">
                    <mxGeometry y="108" width="320" height="22" as="geometry"/>
                </mxCell>
                <mxCell id="191" value="isPinned" style="shape=partialRectangle;html=1;whiteSpace=wrap;connectable=0;fillColor=none;top=0;left=0;bottom=0;right=0;overflow=hidden;pointerEvents=1;rounded=1;" vertex="1" parent="190">
                    <mxGeometry width="107" height="22" as="geometry">
                        <mxRectangle width="107" height="22" as="alternateBounds"/>
                    </mxGeometry>
                </mxCell>
                <mxCell id="192" value="&lt;span&gt;TINYINT (1)&lt;/span&gt;" style="shape=partialRectangle;html=1;whiteSpace=wrap;connectable=0;fillColor=none;top=0;left=0;bottom=0;right=0;overflow=hidden;pointerEvents=1;rounded=1;" vertex="1" parent="190">
                    <mxGeometry x="107" width="106" height="22" as="geometry">
                        <mxRectangle width="106" height="22" as="alternateBounds"/>
                    </mxGeometry>
                </mxCell>
                <mxCell id="193" value="&lt;span&gt;DEFAULT (1)&lt;/span&gt;" style="shape=partialRectangle;html=1;whiteSpace=wrap;connectable=0;fillColor=none;top=0;left=0;bottom=0;right=0;overflow=hidden;pointerEvents=1;rounded=1;" vertex="1" parent="190">
                    <mxGeometry x="213" width="107" height="22" as="geometry">
                        <mxRectangle width="107" height="22" as="alternateBounds"/>
                    </mxGeometry>
                </mxCell>
                <mxCell id="178" style="shape=partialRectangle;html=1;whiteSpace=wrap;collapsible=0;dropTarget=0;pointerEvents=0;fillColor=none;top=0;left=0;bottom=0;right=0;points=[[0,0.5],[1,0.5]];portConstraint=eastwest;rounded=1;" vertex="1" parent="107">
                    <mxGeometry y="130" width="320" height="22" as="geometry"/>
                </mxCell>
                <mxCell id="179" value="createdAt" style="shape=partialRectangle;html=1;whiteSpace=wrap;connectable=0;fillColor=none;top=0;left=0;bottom=0;right=0;overflow=hidden;pointerEvents=1;rounded=1;" vertex="1" parent="178">
                    <mxGeometry width="107" height="22" as="geometry">
                        <mxRectangle width="107" height="22" as="alternateBounds"/>
                    </mxGeometry>
                </mxCell>
                <mxCell id="180" value="DATE" style="shape=partialRectangle;html=1;whiteSpace=wrap;connectable=0;fillColor=none;top=0;left=0;bottom=0;right=0;overflow=hidden;pointerEvents=1;rounded=1;" vertex="1" parent="178">
                    <mxGeometry x="107" width="106" height="22" as="geometry">
                        <mxRectangle width="106" height="22" as="alternateBounds"/>
                    </mxGeometry>
                </mxCell>
                <mxCell id="181" value="NOT NULL" style="shape=partialRectangle;html=1;whiteSpace=wrap;connectable=0;fillColor=none;top=0;left=0;bottom=0;right=0;overflow=hidden;pointerEvents=1;rounded=1;" vertex="1" parent="178">
                    <mxGeometry x="213" width="107" height="22" as="geometry">
                        <mxRectangle width="107" height="22" as="alternateBounds"/>
                    </mxGeometry>
                </mxCell>
                <mxCell id="174" style="shape=partialRectangle;html=1;whiteSpace=wrap;collapsible=0;dropTarget=0;pointerEvents=0;fillColor=none;top=0;left=0;bottom=0;right=0;points=[[0,0.5],[1,0.5]];portConstraint=eastwest;rounded=1;" vertex="1" parent="107">
                    <mxGeometry y="152" width="320" height="22" as="geometry"/>
                </mxCell>
                <mxCell id="175" value="deletedAt" style="shape=partialRectangle;html=1;whiteSpace=wrap;connectable=0;fillColor=none;top=0;left=0;bottom=0;right=0;overflow=hidden;pointerEvents=1;rounded=1;" vertex="1" parent="174">
                    <mxGeometry width="107" height="22" as="geometry">
                        <mxRectangle width="107" height="22" as="alternateBounds"/>
                    </mxGeometry>
                </mxCell>
                <mxCell id="176" value="DATE" style="shape=partialRectangle;html=1;whiteSpace=wrap;connectable=0;fillColor=none;top=0;left=0;bottom=0;right=0;overflow=hidden;pointerEvents=1;rounded=1;" vertex="1" parent="174">
                    <mxGeometry x="107" width="106" height="22" as="geometry">
                        <mxRectangle width="106" height="22" as="alternateBounds"/>
                    </mxGeometry>
                </mxCell>
                <mxCell id="177" value="NULL" style="shape=partialRectangle;html=1;whiteSpace=wrap;connectable=0;fillColor=none;top=0;left=0;bottom=0;right=0;overflow=hidden;pointerEvents=1;rounded=1;" vertex="1" parent="174">
                    <mxGeometry x="213" width="107" height="22" as="geometry">
                        <mxRectangle width="107" height="22" as="alternateBounds"/>
                    </mxGeometry>
                </mxCell>
                <mxCell id="132" style="shape=partialRectangle;html=1;whiteSpace=wrap;collapsible=0;dropTarget=0;pointerEvents=0;fillColor=#007FFF;top=0;left=0;bottom=0;right=0;points=[[0,0.5],[1,0.5]];portConstraint=eastwest;rounded=1;gradientColor=none;sketch=1;" vertex="1" parent="107">
                    <mxGeometry y="174" width="320" height="22" as="geometry"/>
                </mxCell>
                <mxCell id="133" value="userId" style="shape=partialRectangle;html=1;whiteSpace=wrap;connectable=0;fillColor=#007FFF;top=0;left=0;bottom=0;right=0;overflow=hidden;pointerEvents=1;rounded=1;gradientColor=none;sketch=1;" vertex="1" parent="132">
                    <mxGeometry width="107" height="22" as="geometry">
                        <mxRectangle width="107" height="22" as="alternateBounds"/>
                    </mxGeometry>
                </mxCell>
                <mxCell id="134" value="INT" style="shape=partialRectangle;html=1;whiteSpace=wrap;connectable=0;fillColor=#007FFF;top=0;left=0;bottom=0;right=0;overflow=hidden;pointerEvents=1;rounded=1;gradientColor=none;sketch=1;" vertex="1" parent="132">
                    <mxGeometry x="107" width="106" height="22" as="geometry">
                        <mxRectangle width="106" height="22" as="alternateBounds"/>
                    </mxGeometry>
                </mxCell>
                <mxCell id="135" value="NOT NULL" style="shape=partialRectangle;html=1;whiteSpace=wrap;connectable=0;fillColor=#007FFF;top=0;left=0;bottom=0;right=0;overflow=hidden;pointerEvents=1;rounded=1;gradientColor=none;sketch=1;" vertex="1" parent="132">
                    <mxGeometry x="213" width="107" height="22" as="geometry">
                        <mxRectangle width="107" height="22" as="alternateBounds"/>
                    </mxGeometry>
                </mxCell>
                <mxCell id="140" value="NoteXUser" style="shape=table;startSize=20;container=1;collapsible=0;childLayout=tableLayout;fontStyle=1;align=center;pointerEvents=1;strokeColor=#9A42FF;strokeWidth=1;perimeterSpacing=0;swimlaneFillColor=none;gradientColor=none;fillColor=#9A42FF;rounded=1;rowLines=0;columnLines=0;" vertex="1" parent="1">
                    <mxGeometry x="760" y="290" width="320" height="64" as="geometry"/>
                </mxCell>
                <mxCell id="141" value="" style="shape=partialRectangle;html=1;whiteSpace=wrap;collapsible=0;dropTarget=0;pointerEvents=0;fillColor=#7657F2;top=0;left=0;bottom=0;right=0;points=[[0,0.5],[1,0.5]];portConstraint=eastwest;rounded=1;sketch=1;" vertex="1" parent="140">
                    <mxGeometry y="20" width="320" height="22" as="geometry"/>
                </mxCell>
                <mxCell id="142" value="idNote" style="shape=partialRectangle;html=1;whiteSpace=wrap;connectable=0;fillColor=#7657F2;top=0;left=0;bottom=0;right=0;overflow=hidden;pointerEvents=1;rounded=1;sketch=1;" vertex="1" parent="141">
                    <mxGeometry width="107" height="22" as="geometry">
                        <mxRectangle width="107" height="22" as="alternateBounds"/>
                    </mxGeometry>
                </mxCell>
                <mxCell id="143" value="INT" style="shape=partialRectangle;html=1;whiteSpace=wrap;connectable=0;fillColor=#7657F2;top=0;left=0;bottom=0;right=0;overflow=hidden;pointerEvents=1;rounded=1;sketch=1;" vertex="1" parent="141">
                    <mxGeometry x="107" width="106" height="22" as="geometry">
                        <mxRectangle width="106" height="22" as="alternateBounds"/>
                    </mxGeometry>
                </mxCell>
                <mxCell id="144" value="NOT NULL" style="shape=partialRectangle;html=1;whiteSpace=wrap;connectable=0;fillColor=#7657F2;top=0;left=0;bottom=0;right=0;overflow=hidden;pointerEvents=1;rounded=1;sketch=1;" vertex="1" parent="141">
                    <mxGeometry x="213" width="107" height="22" as="geometry">
                        <mxRectangle width="107" height="22" as="alternateBounds"/>
                    </mxGeometry>
                </mxCell>
                <mxCell id="157" style="shape=partialRectangle;html=1;whiteSpace=wrap;collapsible=0;dropTarget=0;pointerEvents=0;fillColor=#007FFF;top=0;left=0;bottom=0;right=0;points=[[0,0.5],[1,0.5]];portConstraint=eastwest;rounded=1;sketch=1;" vertex="1" parent="140">
                    <mxGeometry y="42" width="320" height="22" as="geometry"/>
                </mxCell>
                <mxCell id="158" value="idUser" style="shape=partialRectangle;html=1;whiteSpace=wrap;connectable=0;fillColor=#007FFF;top=0;left=0;bottom=0;right=0;overflow=hidden;pointerEvents=1;rounded=1;sketch=1;" vertex="1" parent="157">
                    <mxGeometry width="107" height="22" as="geometry">
                        <mxRectangle width="107" height="22" as="alternateBounds"/>
                    </mxGeometry>
                </mxCell>
                <mxCell id="159" value="INT" style="shape=partialRectangle;html=1;whiteSpace=wrap;connectable=0;fillColor=#007FFF;top=0;left=0;bottom=0;right=0;overflow=hidden;pointerEvents=1;rounded=1;sketch=1;" vertex="1" parent="157">
                    <mxGeometry x="107" width="106" height="22" as="geometry">
                        <mxRectangle width="106" height="22" as="alternateBounds"/>
                    </mxGeometry>
                </mxCell>
                <mxCell id="160" value="NOT NULL" style="shape=partialRectangle;html=1;whiteSpace=wrap;connectable=0;fillColor=#007FFF;top=0;left=0;bottom=0;right=0;overflow=hidden;pointerEvents=1;rounded=1;sketch=1;" vertex="1" parent="157">
                    <mxGeometry x="213" width="107" height="22" as="geometry">
                        <mxRectangle width="107" height="22" as="alternateBounds"/>
                    </mxGeometry>
                </mxCell>
                <mxCell id="165" value="PhotoXNote" style="shape=table;startSize=20;container=1;collapsible=0;childLayout=tableLayout;fontStyle=1;align=center;pointerEvents=1;strokeColor=#09B07E;strokeWidth=1;perimeterSpacing=0;swimlaneFillColor=none;gradientColor=none;fillColor=#09B07E;rounded=1;rowLines=0;columnLines=0;" vertex="1" parent="1">
                    <mxGeometry x="760" y="410" width="320" height="64" as="geometry"/>
                </mxCell>
                <mxCell id="166" value="" style="shape=partialRectangle;html=1;whiteSpace=wrap;collapsible=0;dropTarget=0;pointerEvents=0;fillColor=#7657F2;top=0;left=0;bottom=0;right=0;points=[[0,0.5],[1,0.5]];portConstraint=eastwest;rounded=1;sketch=1;" vertex="1" parent="165">
                    <mxGeometry y="20" width="320" height="22" as="geometry"/>
                </mxCell>
                <mxCell id="167" value="idNote" style="shape=partialRectangle;html=1;whiteSpace=wrap;connectable=0;fillColor=#7657F2;top=0;left=0;bottom=0;right=0;overflow=hidden;pointerEvents=1;rounded=1;sketch=1;" vertex="1" parent="166">
                    <mxGeometry width="107" height="22" as="geometry">
                        <mxRectangle width="107" height="22" as="alternateBounds"/>
                    </mxGeometry>
                </mxCell>
                <mxCell id="168" value="INT" style="shape=partialRectangle;html=1;whiteSpace=wrap;connectable=0;fillColor=#7657F2;top=0;left=0;bottom=0;right=0;overflow=hidden;pointerEvents=1;rounded=1;sketch=1;" vertex="1" parent="166">
                    <mxGeometry x="107" width="106" height="22" as="geometry">
                        <mxRectangle width="106" height="22" as="alternateBounds"/>
                    </mxGeometry>
                </mxCell>
                <mxCell id="169" value="NOT NULL" style="shape=partialRectangle;html=1;whiteSpace=wrap;connectable=0;fillColor=#7657F2;top=0;left=0;bottom=0;right=0;overflow=hidden;pointerEvents=1;rounded=1;sketch=1;" vertex="1" parent="166">
                    <mxGeometry x="213" width="107" height="22" as="geometry">
                        <mxRectangle width="107" height="22" as="alternateBounds"/>
                    </mxGeometry>
                </mxCell>
                <mxCell id="170" style="shape=partialRectangle;html=1;whiteSpace=wrap;collapsible=0;dropTarget=0;pointerEvents=0;fillColor=#FF5D3D;top=0;left=0;bottom=0;right=0;points=[[0,0.5],[1,0.5]];portConstraint=eastwest;rounded=1;sketch=1;" vertex="1" parent="165">
                    <mxGeometry y="42" width="320" height="22" as="geometry"/>
                </mxCell>
                <mxCell id="171" value="idPhoto" style="shape=partialRectangle;html=1;whiteSpace=wrap;connectable=0;fillColor=#FF5D3D;top=0;left=0;bottom=0;right=0;overflow=hidden;pointerEvents=1;rounded=1;sketch=1;" vertex="1" parent="170">
                    <mxGeometry width="107" height="22" as="geometry">
                        <mxRectangle width="107" height="22" as="alternateBounds"/>
                    </mxGeometry>
                </mxCell>
                <mxCell id="172" value="INT" style="shape=partialRectangle;html=1;whiteSpace=wrap;connectable=0;fillColor=#FF5D3D;top=0;left=0;bottom=0;right=0;overflow=hidden;pointerEvents=1;rounded=1;sketch=1;" vertex="1" parent="170">
                    <mxGeometry x="107" width="106" height="22" as="geometry">
                        <mxRectangle width="106" height="22" as="alternateBounds"/>
                    </mxGeometry>
                </mxCell>
                <mxCell id="173" value="NOT NULL" style="shape=partialRectangle;html=1;whiteSpace=wrap;connectable=0;fillColor=#FF5D3D;top=0;left=0;bottom=0;right=0;overflow=hidden;pointerEvents=1;rounded=1;sketch=1;" vertex="1" parent="170">
                    <mxGeometry x="213" width="107" height="22" as="geometry">
                        <mxRectangle width="107" height="22" as="alternateBounds"/>
                    </mxGeometry>
                </mxCell>
                <mxCell id="182" style="edgeStyle=none;html=1;entryX=0;entryY=0.5;entryDx=0;entryDy=0;exitX=0;exitY=0.5;exitDx=0;exitDy=0;" edge="1" parent="1" source="132" target="3">
                    <mxGeometry relative="1" as="geometry">
                        <Array as="points">
                            <mxPoint x="40" y="425"/>
                            <mxPoint x="40" y="71"/>
                        </Array>
                    </mxGeometry>
                </mxCell>
                <mxCell id="184" style="edgeStyle=none;html=1;exitX=0;exitY=0.5;exitDx=0;exitDy=0;entryX=1;entryY=0.5;entryDx=0;entryDy=0;" edge="1" parent="1" source="157" target="3">
                    <mxGeometry relative="1" as="geometry">
                        <Array as="points">
                            <mxPoint x="640" y="343"/>
                            <mxPoint x="640" y="71"/>
                        </Array>
                    </mxGeometry>
                </mxCell>
                <mxCell id="186" style="edgeStyle=none;html=1;exitX=1;exitY=0.5;exitDx=0;exitDy=0;entryX=1;entryY=0.5;entryDx=0;entryDy=0;" edge="1" parent="1" source="170" target="67">
                    <mxGeometry relative="1" as="geometry">
                        <Array as="points">
                            <mxPoint x="1120" y="463"/>
                            <mxPoint x="1120" y="71"/>
                        </Array>
                    </mxGeometry>
                </mxCell>
                <mxCell id="187" style="edgeStyle=none;html=1;exitX=0;exitY=0.5;exitDx=0;exitDy=0;entryX=1;entryY=0.5;entryDx=0;entryDy=0;" edge="1" parent="1" source="166" target="108">
                    <mxGeometry relative="1" as="geometry">
                        <Array as="points">
                            <mxPoint x="480" y="441"/>
                            <mxPoint x="480" y="271"/>
                        </Array>
                    </mxGeometry>
                </mxCell>
                <mxCell id="188" style="edgeStyle=none;html=1;exitX=0;exitY=0.5;exitDx=0;exitDy=0;entryX=1;entryY=0.5;entryDx=0;entryDy=0;" edge="1" parent="1" source="141" target="108">
                    <mxGeometry relative="1" as="geometry">
                        <Array as="points">
                            <mxPoint x="520" y="320"/>
                            <mxPoint x="520" y="271"/>
                        </Array>
                    </mxGeometry>
                </mxCell>
            </root>
        </mxGraphModel>
    </diagram>
</mxfile>
